<mxfile host="Electron" agent="Mozilla/5.0 (Windows NT 10.0; Win64; x64) AppleWebKit/537.36 (KHTML, like Gecko) draw.io/24.7.17 Chrome/128.0.6613.36 Electron/32.0.1 Safari/537.36" version="24.7.17" pages="2">
  <diagram name="Página-1" id="9-xTg-6y7FksglI8sIYr">
    <mxGraphModel dx="2072" dy="1228" grid="1" gridSize="10" guides="1" tooltips="1" connect="1" arrows="1" fold="1" page="1" pageScale="1" pageWidth="827" pageHeight="1169" math="0" shadow="0">
      <root>
        <mxCell id="0" />
        <mxCell id="1" parent="0" />
        <mxCell id="AXJDwAKvx6iluLiu_2wL-1" value="" style="rounded=1;whiteSpace=wrap;html=1;dashed=1;" parent="1" vertex="1">
          <mxGeometry x="40" y="50" width="670" height="190" as="geometry" />
        </mxCell>
        <mxCell id="AXJDwAKvx6iluLiu_2wL-2" value="" style="rounded=1;whiteSpace=wrap;html=1;dashed=1;" parent="1" vertex="1">
          <mxGeometry x="40" y="320" width="680" height="190" as="geometry" />
        </mxCell>
        <mxCell id="AXJDwAKvx6iluLiu_2wL-3" value="" style="rounded=1;whiteSpace=wrap;html=1;dashed=1;" parent="1" vertex="1">
          <mxGeometry x="40" y="589" width="680" height="190" as="geometry" />
        </mxCell>
        <mxCell id="AXJDwAKvx6iluLiu_2wL-4" value="Processos" style="text;html=1;align=center;verticalAlign=middle;whiteSpace=wrap;rounded=0;" parent="1" vertex="1">
          <mxGeometry x="54" y="60" width="60" height="30" as="geometry" />
        </mxCell>
        <mxCell id="AXJDwAKvx6iluLiu_2wL-5" value="Aplicação" style="text;html=1;align=center;verticalAlign=middle;whiteSpace=wrap;rounded=0;" parent="1" vertex="1">
          <mxGeometry x="52" y="330" width="60" height="30" as="geometry" />
        </mxCell>
        <mxCell id="AXJDwAKvx6iluLiu_2wL-6" value="Infraestrutura" style="text;html=1;align=center;verticalAlign=middle;whiteSpace=wrap;rounded=0;" parent="1" vertex="1">
          <mxGeometry x="60" y="600" width="60" height="30" as="geometry" />
        </mxCell>
        <mxCell id="AXJDwAKvx6iluLiu_2wL-10" value="" style="edgeStyle=orthogonalEdgeStyle;rounded=0;orthogonalLoop=1;jettySize=auto;html=1;" parent="1" source="AXJDwAKvx6iluLiu_2wL-8" target="AXJDwAKvx6iluLiu_2wL-9" edge="1">
          <mxGeometry relative="1" as="geometry" />
        </mxCell>
        <mxCell id="AXJDwAKvx6iluLiu_2wL-8" value="Cadastro de Cliente" style="rounded=1;whiteSpace=wrap;html=1;fillColor=#6d8764;strokeColor=#3A5431;fontColor=#ffffff;" parent="1" vertex="1">
          <mxGeometry x="90" y="121" width="120" height="60" as="geometry" />
        </mxCell>
        <mxCell id="AXJDwAKvx6iluLiu_2wL-12" value="" style="edgeStyle=orthogonalEdgeStyle;rounded=0;orthogonalLoop=1;jettySize=auto;html=1;" parent="1" source="AXJDwAKvx6iluLiu_2wL-9" target="AXJDwAKvx6iluLiu_2wL-11" edge="1">
          <mxGeometry relative="1" as="geometry" />
        </mxCell>
        <mxCell id="AXJDwAKvx6iluLiu_2wL-9" value="Agendamento de Atendimento" style="rounded=1;whiteSpace=wrap;html=1;fillColor=#6d8764;strokeColor=#3A5431;fontColor=#ffffff;" parent="1" vertex="1">
          <mxGeometry x="260" y="121" width="180" height="60" as="geometry" />
        </mxCell>
        <mxCell id="AXJDwAKvx6iluLiu_2wL-11" value="Feedback Pós-Atendimento" style="rounded=1;whiteSpace=wrap;html=1;fillColor=#6d8764;strokeColor=#3A5431;fontColor=#ffffff;" parent="1" vertex="1">
          <mxGeometry x="490" y="121" width="190" height="60" as="geometry" />
        </mxCell>
        <mxCell id="AXJDwAKvx6iluLiu_2wL-14" style="edgeStyle=orthogonalEdgeStyle;rounded=0;orthogonalLoop=1;jettySize=auto;html=1;entryX=0.5;entryY=1;entryDx=0;entryDy=0;" parent="1" source="AXJDwAKvx6iluLiu_2wL-13" target="AXJDwAKvx6iluLiu_2wL-8" edge="1">
          <mxGeometry relative="1" as="geometry" />
        </mxCell>
        <mxCell id="AXJDwAKvx6iluLiu_2wL-13" value="Interface de cadastro (site institucional)" style="rounded=1;whiteSpace=wrap;html=1;fillColor=#647687;fontColor=#ffffff;strokeColor=#314354;" parent="1" vertex="1">
          <mxGeometry x="90" y="390" width="120" height="60" as="geometry" />
        </mxCell>
        <mxCell id="AXJDwAKvx6iluLiu_2wL-16" style="edgeStyle=orthogonalEdgeStyle;rounded=0;orthogonalLoop=1;jettySize=auto;html=1;entryX=0.5;entryY=1;entryDx=0;entryDy=0;" parent="1" source="AXJDwAKvx6iluLiu_2wL-15" target="AXJDwAKvx6iluLiu_2wL-13" edge="1">
          <mxGeometry relative="1" as="geometry" />
        </mxCell>
        <mxCell id="AXJDwAKvx6iluLiu_2wL-15" value="API Pipefy" style="rounded=1;whiteSpace=wrap;html=1;fillColor=#60a917;fontColor=#ffffff;strokeColor=#2D7600;" parent="1" vertex="1">
          <mxGeometry x="90" y="670" width="120" height="60" as="geometry" />
        </mxCell>
        <mxCell id="AXJDwAKvx6iluLiu_2wL-18" style="edgeStyle=orthogonalEdgeStyle;rounded=0;orthogonalLoop=1;jettySize=auto;html=1;entryX=0.5;entryY=1;entryDx=0;entryDy=0;" parent="1" source="AXJDwAKvx6iluLiu_2wL-17" target="AXJDwAKvx6iluLiu_2wL-9" edge="1">
          <mxGeometry relative="1" as="geometry" />
        </mxCell>
        <mxCell id="AXJDwAKvx6iluLiu_2wL-29" style="edgeStyle=orthogonalEdgeStyle;rounded=0;orthogonalLoop=1;jettySize=auto;html=1;entryX=0.25;entryY=0;entryDx=0;entryDy=0;" parent="1" source="AXJDwAKvx6iluLiu_2wL-17" target="AXJDwAKvx6iluLiu_2wL-19" edge="1">
          <mxGeometry relative="1" as="geometry">
            <Array as="points">
              <mxPoint x="350" y="630" />
              <mxPoint x="460" y="630" />
            </Array>
          </mxGeometry>
        </mxCell>
        <mxCell id="AXJDwAKvx6iluLiu_2wL-17" value="Interface de agendamento KronosBooking" style="rounded=1;whiteSpace=wrap;html=1;fillColor=#647687;fontColor=#ffffff;strokeColor=#314354;" parent="1" vertex="1">
          <mxGeometry x="290" y="385" width="120" height="60" as="geometry" />
        </mxCell>
        <mxCell id="AXJDwAKvx6iluLiu_2wL-20" style="edgeStyle=orthogonalEdgeStyle;rounded=0;orthogonalLoop=1;jettySize=auto;html=1;entryX=0.75;entryY=1;entryDx=0;entryDy=0;" parent="1" source="AXJDwAKvx6iluLiu_2wL-19" target="AXJDwAKvx6iluLiu_2wL-13" edge="1">
          <mxGeometry relative="1" as="geometry">
            <Array as="points">
              <mxPoint x="280" y="620" />
              <mxPoint x="180" y="620" />
            </Array>
          </mxGeometry>
        </mxCell>
        <mxCell id="AXJDwAKvx6iluLiu_2wL-19" value="On Premise" style="rounded=1;whiteSpace=wrap;html=1;fillColor=#60a917;fontColor=#ffffff;strokeColor=#2D7600;" parent="1" vertex="1">
          <mxGeometry x="430" y="654" width="120" height="60" as="geometry" />
        </mxCell>
        <mxCell id="AXJDwAKvx6iluLiu_2wL-21" value="BD Local" style="shape=datastore;whiteSpace=wrap;html=1;" parent="1" vertex="1">
          <mxGeometry x="445" y="810" width="90" height="60" as="geometry" />
        </mxCell>
        <mxCell id="AXJDwAKvx6iluLiu_2wL-23" value="" style="html=1;labelBackgroundColor=#ffffff;startArrow=none;startFill=0;startSize=6;endArrow=classic;endFill=1;endSize=6;jettySize=auto;orthogonalLoop=1;strokeWidth=1;dashed=1;fontSize=14;rounded=0;exitX=0.5;exitY=1;exitDx=0;exitDy=0;entryX=0.5;entryY=0;entryDx=0;entryDy=0;" parent="1" source="AXJDwAKvx6iluLiu_2wL-19" target="AXJDwAKvx6iluLiu_2wL-21" edge="1">
          <mxGeometry width="60" height="60" relative="1" as="geometry">
            <mxPoint x="440" y="760" as="sourcePoint" />
            <mxPoint x="500" y="700" as="targetPoint" />
          </mxGeometry>
        </mxCell>
        <mxCell id="AXJDwAKvx6iluLiu_2wL-27" style="edgeStyle=orthogonalEdgeStyle;rounded=0;orthogonalLoop=1;jettySize=auto;html=1;entryX=0.5;entryY=1;entryDx=0;entryDy=0;" parent="1" source="AXJDwAKvx6iluLiu_2wL-26" target="AXJDwAKvx6iluLiu_2wL-11" edge="1">
          <mxGeometry relative="1" as="geometry" />
        </mxCell>
        <mxCell id="AXJDwAKvx6iluLiu_2wL-30" style="edgeStyle=orthogonalEdgeStyle;rounded=0;orthogonalLoop=1;jettySize=auto;html=1;entryX=0.5;entryY=0;entryDx=0;entryDy=0;" parent="1" source="AXJDwAKvx6iluLiu_2wL-26" target="AXJDwAKvx6iluLiu_2wL-19" edge="1">
          <mxGeometry relative="1" as="geometry" />
        </mxCell>
        <mxCell id="AXJDwAKvx6iluLiu_2wL-26" value="Interface de feedback (KronosBooking)" style="rounded=1;whiteSpace=wrap;html=1;fillColor=#647687;fontColor=#ffffff;strokeColor=#314354;" parent="1" vertex="1">
          <mxGeometry x="490" y="380" width="120" height="60" as="geometry" />
        </mxCell>
      </root>
    </mxGraphModel>
  </diagram>
  <diagram id="LQeBxNpAQHVanZu_VKxy" name="Página-2">
    <mxGraphModel dx="1669" dy="737" grid="1" gridSize="10" guides="1" tooltips="1" connect="1" arrows="1" fold="1" page="1" pageScale="1" pageWidth="827" pageHeight="1169" math="0" shadow="0">
      <root>
        <mxCell id="0" />
        <mxCell id="1" parent="0" />
        <mxCell id="tdzgG9NnpSkhX3VTS1IG-1" value="" style="rounded=0;whiteSpace=wrap;html=1;dashed=1;" vertex="1" parent="1">
          <mxGeometry x="40" y="50" width="1220" height="190" as="geometry" />
        </mxCell>
        <mxCell id="tdzgG9NnpSkhX3VTS1IG-2" value="" style="rounded=0;whiteSpace=wrap;html=1;dashed=1;" vertex="1" parent="1">
          <mxGeometry x="40" y="320" width="1220" height="190" as="geometry" />
        </mxCell>
        <mxCell id="tdzgG9NnpSkhX3VTS1IG-3" value="" style="rounded=0;whiteSpace=wrap;html=1;dashed=1;" vertex="1" parent="1">
          <mxGeometry x="40" y="589" width="1220" height="190" as="geometry" />
        </mxCell>
        <mxCell id="tdzgG9NnpSkhX3VTS1IG-4" value="Processos" style="text;html=1;align=center;verticalAlign=middle;whiteSpace=wrap;rounded=0;" vertex="1" parent="1">
          <mxGeometry x="54" y="60" width="60" height="30" as="geometry" />
        </mxCell>
        <mxCell id="tdzgG9NnpSkhX3VTS1IG-5" value="Aplicação" style="text;html=1;align=center;verticalAlign=middle;whiteSpace=wrap;rounded=0;" vertex="1" parent="1">
          <mxGeometry x="52" y="330" width="60" height="30" as="geometry" />
        </mxCell>
        <mxCell id="tdzgG9NnpSkhX3VTS1IG-6" value="Infraestrutura" style="text;html=1;align=center;verticalAlign=middle;whiteSpace=wrap;rounded=0;" vertex="1" parent="1">
          <mxGeometry x="60" y="600" width="60" height="30" as="geometry" />
        </mxCell>
        <mxCell id="tdzgG9NnpSkhX3VTS1IG-26" style="edgeStyle=orthogonalEdgeStyle;rounded=0;orthogonalLoop=1;jettySize=auto;html=1;entryX=0.5;entryY=0;entryDx=0;entryDy=0;" edge="1" parent="1" source="tdzgG9NnpSkhX3VTS1IG-8" target="tdzgG9NnpSkhX3VTS1IG-13">
          <mxGeometry relative="1" as="geometry" />
        </mxCell>
        <mxCell id="tdzgG9NnpSkhX3VTS1IG-51" style="edgeStyle=orthogonalEdgeStyle;rounded=0;orthogonalLoop=1;jettySize=auto;html=1;entryX=0;entryY=0.5;entryDx=0;entryDy=0;" edge="1" parent="1" source="tdzgG9NnpSkhX3VTS1IG-8" target="tdzgG9NnpSkhX3VTS1IG-46">
          <mxGeometry relative="1" as="geometry" />
        </mxCell>
        <mxCell id="tdzgG9NnpSkhX3VTS1IG-8" value="&lt;font color=&quot;#000000&quot;&gt;Cadastro de Cliente&lt;/font&gt;" style="rounded=1;whiteSpace=wrap;html=1;fillColor=#FF99CC;strokeColor=#000000;fontColor=#ffffff;" vertex="1" parent="1">
          <mxGeometry x="90" y="121" width="120" height="60" as="geometry" />
        </mxCell>
        <mxCell id="tdzgG9NnpSkhX3VTS1IG-54" style="edgeStyle=orthogonalEdgeStyle;rounded=0;orthogonalLoop=1;jettySize=auto;html=1;entryX=0;entryY=0.5;entryDx=0;entryDy=0;" edge="1" parent="1" source="tdzgG9NnpSkhX3VTS1IG-10" target="tdzgG9NnpSkhX3VTS1IG-50">
          <mxGeometry relative="1" as="geometry" />
        </mxCell>
        <mxCell id="tdzgG9NnpSkhX3VTS1IG-59" style="edgeStyle=orthogonalEdgeStyle;rounded=0;orthogonalLoop=1;jettySize=auto;html=1;" edge="1" parent="1" source="tdzgG9NnpSkhX3VTS1IG-10" target="tdzgG9NnpSkhX3VTS1IG-18">
          <mxGeometry relative="1" as="geometry">
            <Array as="points">
              <mxPoint x="663" y="270" />
              <mxPoint x="490" y="270" />
            </Array>
          </mxGeometry>
        </mxCell>
        <mxCell id="tdzgG9NnpSkhX3VTS1IG-10" value="&lt;font color=&quot;#000000&quot;&gt;Agendamento de Serviço&lt;/font&gt;" style="rounded=1;whiteSpace=wrap;html=1;fillColor=#FF99CC;strokeColor=#000000;fontColor=#ffffff;" vertex="1" parent="1">
          <mxGeometry x="600" y="121" width="126" height="60" as="geometry" />
        </mxCell>
        <mxCell id="tdzgG9NnpSkhX3VTS1IG-64" style="edgeStyle=orthogonalEdgeStyle;rounded=0;orthogonalLoop=1;jettySize=auto;html=1;entryX=0.5;entryY=0;entryDx=0;entryDy=0;" edge="1" parent="1" source="tdzgG9NnpSkhX3VTS1IG-11" target="tdzgG9NnpSkhX3VTS1IG-25">
          <mxGeometry relative="1" as="geometry" />
        </mxCell>
        <mxCell id="tdzgG9NnpSkhX3VTS1IG-11" value="&lt;font color=&quot;#000000&quot;&gt;Feedback Pós-Atendimento&lt;/font&gt;" style="rounded=1;whiteSpace=wrap;html=1;fillColor=#FF99CC;strokeColor=#000000;fontColor=#ffffff;" vertex="1" parent="1">
          <mxGeometry x="940" y="121" width="140" height="60" as="geometry" />
        </mxCell>
        <mxCell id="tdzgG9NnpSkhX3VTS1IG-27" style="edgeStyle=orthogonalEdgeStyle;rounded=0;orthogonalLoop=1;jettySize=auto;html=1;" edge="1" parent="1" source="tdzgG9NnpSkhX3VTS1IG-13" target="tdzgG9NnpSkhX3VTS1IG-18">
          <mxGeometry relative="1" as="geometry" />
        </mxCell>
        <mxCell id="tdzgG9NnpSkhX3VTS1IG-41" style="edgeStyle=orthogonalEdgeStyle;rounded=0;orthogonalLoop=1;jettySize=auto;html=1;entryX=0;entryY=0.5;entryDx=0;entryDy=0;" edge="1" parent="1" source="tdzgG9NnpSkhX3VTS1IG-13" target="tdzgG9NnpSkhX3VTS1IG-20">
          <mxGeometry relative="1" as="geometry">
            <Array as="points">
              <mxPoint x="150" y="684" />
            </Array>
          </mxGeometry>
        </mxCell>
        <mxCell id="tdzgG9NnpSkhX3VTS1IG-13" value="&lt;font color=&quot;#000000&quot;&gt;Interface de Cadastro (Site Institucional)&lt;/font&gt;" style="rounded=1;whiteSpace=wrap;html=1;fillColor=#FFB366;fontColor=#ffffff;strokeColor=#000000;" vertex="1" parent="1">
          <mxGeometry x="85" y="390" width="130" height="60" as="geometry" />
        </mxCell>
        <mxCell id="tdzgG9NnpSkhX3VTS1IG-66" style="edgeStyle=orthogonalEdgeStyle;rounded=0;orthogonalLoop=1;jettySize=auto;html=1;entryX=0.5;entryY=0;entryDx=0;entryDy=0;" edge="1" parent="1" source="tdzgG9NnpSkhX3VTS1IG-18" target="tdzgG9NnpSkhX3VTS1IG-20">
          <mxGeometry relative="1" as="geometry" />
        </mxCell>
        <mxCell id="tdzgG9NnpSkhX3VTS1IG-18" value="&lt;font color=&quot;#000000&quot;&gt;Interface de Agendamento (KronosBooking)&lt;/font&gt;" style="rounded=1;whiteSpace=wrap;html=1;fillColor=#FFB366;fontColor=#ffffff;strokeColor=#000000;" vertex="1" parent="1">
          <mxGeometry x="410" y="390" width="160" height="60" as="geometry" />
        </mxCell>
        <mxCell id="tdzgG9NnpSkhX3VTS1IG-44" style="edgeStyle=orthogonalEdgeStyle;rounded=0;orthogonalLoop=1;jettySize=auto;html=1;entryX=0;entryY=0.5;entryDx=0;entryDy=0;" edge="1" parent="1" source="tdzgG9NnpSkhX3VTS1IG-20" target="tdzgG9NnpSkhX3VTS1IG-21">
          <mxGeometry relative="1" as="geometry" />
        </mxCell>
        <mxCell id="tdzgG9NnpSkhX3VTS1IG-20" value="&lt;font color=&quot;#000000&quot;&gt;On Premise&lt;/font&gt;" style="rounded=1;whiteSpace=wrap;html=1;fillColor=#FFFF66;fontColor=#ffffff;strokeColor=#000000;" vertex="1" parent="1">
          <mxGeometry x="354" y="654" width="120" height="60" as="geometry" />
        </mxCell>
        <mxCell id="tdzgG9NnpSkhX3VTS1IG-21" value="Banco de Dados&amp;nbsp;&lt;div&gt;(MySQL)&lt;/div&gt;" style="shape=datastore;whiteSpace=wrap;html=1;fillColor=#FF66B3;" vertex="1" parent="1">
          <mxGeometry x="440" y="800" width="105" height="80" as="geometry" />
        </mxCell>
        <mxCell id="tdzgG9NnpSkhX3VTS1IG-65" style="edgeStyle=orthogonalEdgeStyle;rounded=0;orthogonalLoop=1;jettySize=auto;html=1;entryX=0;entryY=0.5;entryDx=0;entryDy=0;" edge="1" parent="1" source="tdzgG9NnpSkhX3VTS1IG-25" target="tdzgG9NnpSkhX3VTS1IG-33">
          <mxGeometry relative="1" as="geometry" />
        </mxCell>
        <mxCell id="tdzgG9NnpSkhX3VTS1IG-25" value="&lt;font color=&quot;#000000&quot;&gt;Interface de Feedback (KronosBooking)&lt;/font&gt;" style="rounded=1;whiteSpace=wrap;html=1;fillColor=#FFB366;fontColor=#ffffff;strokeColor=#000000;" vertex="1" parent="1">
          <mxGeometry x="890" y="390" width="145" height="60" as="geometry" />
        </mxCell>
        <mxCell id="tdzgG9NnpSkhX3VTS1IG-67" style="edgeStyle=orthogonalEdgeStyle;rounded=0;orthogonalLoop=1;jettySize=auto;html=1;entryX=0.5;entryY=0;entryDx=0;entryDy=0;" edge="1" parent="1" source="tdzgG9NnpSkhX3VTS1IG-33" target="tdzgG9NnpSkhX3VTS1IG-36">
          <mxGeometry relative="1" as="geometry">
            <Array as="points">
              <mxPoint x="1152" y="550" />
              <mxPoint x="698" y="550" />
            </Array>
          </mxGeometry>
        </mxCell>
        <mxCell id="tdzgG9NnpSkhX3VTS1IG-33" value="&lt;font color=&quot;#000000&quot;&gt;API Python&lt;/font&gt;&lt;div&gt;&lt;font color=&quot;#000000&quot;&gt;(Envios de E-mail)&lt;/font&gt;&lt;/div&gt;" style="rounded=1;whiteSpace=wrap;html=1;fillColor=#FFB366;fontColor=#ffffff;strokeColor=#000000;" vertex="1" parent="1">
          <mxGeometry x="1080" y="390" width="145" height="60" as="geometry" />
        </mxCell>
        <mxCell id="tdzgG9NnpSkhX3VTS1IG-39" style="edgeStyle=orthogonalEdgeStyle;rounded=0;orthogonalLoop=1;jettySize=auto;html=1;entryX=1;entryY=0.5;entryDx=0;entryDy=0;" edge="1" parent="1" source="tdzgG9NnpSkhX3VTS1IG-36" target="tdzgG9NnpSkhX3VTS1IG-21">
          <mxGeometry relative="1" as="geometry" />
        </mxCell>
        <mxCell id="tdzgG9NnpSkhX3VTS1IG-36" value="&lt;font color=&quot;#000000&quot;&gt;API Pifefy&lt;/font&gt;&lt;div&gt;&lt;font color=&quot;#000000&quot;&gt;(Formulário de Feedback)&lt;/font&gt;&lt;/div&gt;" style="rounded=1;whiteSpace=wrap;html=1;fillColor=#FFFF66;strokeColor=#000000;" vertex="1" parent="1">
          <mxGeometry x="620" y="654" width="155" height="60" as="geometry" />
        </mxCell>
        <mxCell id="tdzgG9NnpSkhX3VTS1IG-52" style="edgeStyle=orthogonalEdgeStyle;rounded=0;orthogonalLoop=1;jettySize=auto;html=1;entryX=0;entryY=0.5;entryDx=0;entryDy=0;" edge="1" parent="1" source="tdzgG9NnpSkhX3VTS1IG-46" target="tdzgG9NnpSkhX3VTS1IG-47">
          <mxGeometry relative="1" as="geometry" />
        </mxCell>
        <mxCell id="tdzgG9NnpSkhX3VTS1IG-57" style="edgeStyle=orthogonalEdgeStyle;rounded=0;orthogonalLoop=1;jettySize=auto;html=1;entryX=0.5;entryY=0;entryDx=0;entryDy=0;" edge="1" parent="1" source="tdzgG9NnpSkhX3VTS1IG-46" target="tdzgG9NnpSkhX3VTS1IG-18">
          <mxGeometry relative="1" as="geometry">
            <Array as="points">
              <mxPoint x="320" y="270" />
              <mxPoint x="490" y="270" />
            </Array>
          </mxGeometry>
        </mxCell>
        <mxCell id="tdzgG9NnpSkhX3VTS1IG-46" value="&lt;font color=&quot;#000000&quot;&gt;Escolha do Procedimento&lt;/font&gt;" style="rounded=1;whiteSpace=wrap;html=1;fillColor=#FF99CC;strokeColor=#000000;fontColor=#ffffff;" vertex="1" parent="1">
          <mxGeometry x="260" y="121" width="120" height="60" as="geometry" />
        </mxCell>
        <mxCell id="tdzgG9NnpSkhX3VTS1IG-53" style="edgeStyle=orthogonalEdgeStyle;rounded=0;orthogonalLoop=1;jettySize=auto;html=1;entryX=0;entryY=0.5;entryDx=0;entryDy=0;" edge="1" parent="1" source="tdzgG9NnpSkhX3VTS1IG-47" target="tdzgG9NnpSkhX3VTS1IG-10">
          <mxGeometry relative="1" as="geometry" />
        </mxCell>
        <mxCell id="tdzgG9NnpSkhX3VTS1IG-58" style="edgeStyle=orthogonalEdgeStyle;rounded=0;orthogonalLoop=1;jettySize=auto;html=1;" edge="1" parent="1" source="tdzgG9NnpSkhX3VTS1IG-47">
          <mxGeometry relative="1" as="geometry">
            <mxPoint x="490" y="390" as="targetPoint" />
          </mxGeometry>
        </mxCell>
        <mxCell id="tdzgG9NnpSkhX3VTS1IG-47" value="&lt;font color=&quot;#000000&quot;&gt;Personalização do Procedimento&lt;/font&gt;" style="rounded=1;whiteSpace=wrap;html=1;fillColor=#FF99CC;strokeColor=#000000;fontColor=#ffffff;" vertex="1" parent="1">
          <mxGeometry x="430" y="121" width="120" height="60" as="geometry" />
        </mxCell>
        <mxCell id="tdzgG9NnpSkhX3VTS1IG-55" style="edgeStyle=orthogonalEdgeStyle;rounded=0;orthogonalLoop=1;jettySize=auto;html=1;entryX=0;entryY=0.5;entryDx=0;entryDy=0;" edge="1" parent="1" source="tdzgG9NnpSkhX3VTS1IG-50" target="tdzgG9NnpSkhX3VTS1IG-11">
          <mxGeometry relative="1" as="geometry" />
        </mxCell>
        <mxCell id="tdzgG9NnpSkhX3VTS1IG-50" value="&lt;font color=&quot;#000000&quot;&gt;Recebimento de Confirmação&lt;/font&gt;" style="rounded=1;whiteSpace=wrap;html=1;fillColor=#FF99CC;strokeColor=#000000;fontColor=#ffffff;" vertex="1" parent="1">
          <mxGeometry x="770" y="121" width="120" height="60" as="geometry" />
        </mxCell>
        <mxCell id="tdzgG9NnpSkhX3VTS1IG-61" style="edgeStyle=orthogonalEdgeStyle;rounded=0;orthogonalLoop=1;jettySize=auto;html=1;entryX=0.5;entryY=1;entryDx=0;entryDy=0;" edge="1" parent="1" source="tdzgG9NnpSkhX3VTS1IG-56" target="tdzgG9NnpSkhX3VTS1IG-50">
          <mxGeometry relative="1" as="geometry" />
        </mxCell>
        <mxCell id="tdzgG9NnpSkhX3VTS1IG-56" value="&lt;font color=&quot;#000000&quot;&gt;API Python&lt;/font&gt;&lt;div&gt;&lt;font color=&quot;#000000&quot;&gt;(Confirmação de Status)&lt;/font&gt;&lt;/div&gt;" style="rounded=1;whiteSpace=wrap;html=1;fillColor=#FFB366;fontColor=#ffffff;strokeColor=#000000;" vertex="1" parent="1">
          <mxGeometry x="690" y="390" width="145" height="60" as="geometry" />
        </mxCell>
      </root>
    </mxGraphModel>
  </diagram>
</mxfile>
